<svg width="13" height="13" fill="none" xmlns="http://www.w3.org/2000/svg"><path d="M9.412 0H3.587A3.592 3.592 0 000 3.588v5.824A3.592 3.592 0 003.587 13h5.825A3.592 3.592 0 0013 9.412V3.588A3.592 3.592 0 009.412 0zm2.435 9.412a2.437 2.437 0 01-2.435 2.435H3.587a2.437 2.437 0 01-2.434-2.435V3.588a2.437 2.437 0 012.434-2.435h5.825a2.437 2.437 0 012.435 2.435v5.824z" fill="#fff"/><path d="M6.5 3.15A3.354 3.354 0 003.15 6.5 3.353 3.353 0 006.5 9.85 3.353 3.353 0 009.85 6.5 3.354 3.354 0 006.5 3.15zm0 5.546A2.199 2.199 0 014.304 6.5c0-1.211.985-2.196 2.196-2.196 1.211 0 2.196.985 2.196 2.196A2.199 2.199 0 016.5 8.696zm3.49-6.524a.85.85 0 00-.846.846c0 .223.091.44.249.598a.852.852 0 00.597.248.85.85 0 00.598-.248.85.85 0 00-.598-1.444z" fill="#fff"/></svg>