<svg width="20" height="20" fill="none" xmlns="http://www.w3.org/2000/svg"><path d="M19.527 11.382a.7.7 0 00-.588.128 7.495 7.495 0 01-2.274 1.334 7.1 7.1 0 01-2.582.462A7.503 7.503 0 018.767 11.1a7.556 7.556 0 01-2.198-5.335c0-.872.153-1.718.409-2.488.28-.82.69-1.565 1.227-2.206a.656.656 0 00-.103-.923.701.701 0 00-.588-.128C5.342.61 3.45 1.918 2.096 3.662A10.18 10.18 0 000 9.843a10.14 10.14 0 002.965 7.182A10.066 10.066 0 0010.12 20c2.352 0 4.524-.82 6.263-2.18a10.118 10.118 0 003.578-5.617c.128-.385-.077-.744-.435-.821zm-3.91 5.36a8.715 8.715 0 01-5.444 1.899c-2.429 0-4.627-1-6.211-2.59A8.817 8.817 0 011.38 9.816c0-2.026.665-3.872 1.815-5.36a8.795 8.795 0 012.94-2.462 8.739 8.739 0 00-.359.872c-.332.923-.485 1.898-.485 2.924a8.88 8.88 0 002.581 6.258 8.816 8.816 0 006.237 2.59 8.53 8.53 0 003.041-.538c.333-.128.665-.257.972-.41a9.324 9.324 0 01-2.505 3.052z" fill="#fff"/></svg>