<svg width="12" height="12" viewBox="0 0 12 12" fill="none" xmlns="http://www.w3.org/2000/svg">
<g clip-path="url(#clip0)">
<path d="M11.8931 8.68356C11.8608 8.62955 11.6613 8.19602 10.7012 7.30495C9.69614 6.37188 9.83115 6.5234 11.0417 4.91003C11.779 3.92745 12.0738 3.32741 11.9816 3.07089C11.8938 2.82637 11.3515 2.89088 11.3515 2.89088L9.54838 2.90138C9.54838 2.90138 9.41487 2.88337 9.31511 2.94263C9.21835 3.00113 9.1561 3.13614 9.1561 3.13614C9.1561 3.13614 8.87033 3.8967 8.4893 4.54325C7.68599 5.9076 7.36421 5.9796 7.23295 5.89485C6.92768 5.69758 7.00419 5.10129 7.00419 4.67826C7.00419 3.35591 7.20445 2.80462 6.61341 2.66211C6.41689 2.61485 6.27288 2.58335 5.7711 2.5781C5.12755 2.57135 4.58226 2.58035 4.27398 2.73111C4.06847 2.83162 3.91021 3.05589 4.00696 3.06864C4.12622 3.08439 4.39624 3.14139 4.5395 3.33641C4.72477 3.58768 4.71802 4.15322 4.71802 4.15322C4.71802 4.15322 4.82453 5.70958 4.46975 5.9031C4.22598 6.03586 3.89221 5.76509 3.1759 4.52675C2.80913 3.89295 2.53161 3.19165 2.53161 3.19165C2.53161 3.19165 2.47835 3.06114 2.38309 2.99138C2.26759 2.90663 2.10557 2.87962 2.10557 2.87962L0.390947 2.89013C0.390947 2.89013 0.133677 2.89763 0.0391703 3.00938C-0.0448359 3.10914 0.0324198 3.31466 0.0324198 3.31466C0.0324198 3.31466 1.37502 6.45514 2.89463 8.03851C4.28899 9.48986 5.8716 9.39461 5.8716 9.39461H6.58866C6.58866 9.39461 6.80542 9.37061 6.91568 9.25135C7.01769 9.14184 7.01394 8.93632 7.01394 8.93632C7.01394 8.93632 6.99969 7.974 7.44672 7.83224C7.887 7.69273 8.45255 8.76231 9.05184 9.17409C9.50487 9.48536 9.84915 9.41711 9.84915 9.41711L11.452 9.39461C11.452 9.39461 12.2906 9.34285 11.8931 8.68356Z" fill="white"/>
</g>
<defs>
<clipPath id="clip0">
<rect width="12" height="12" fill="white"/>
</clipPath>
</defs>
</svg>
