<svg width="25" height="25" viewBox="0 0 25 25" fill="none" xmlns="http://www.w3.org/2000/svg">
<path d="M24.1702 22.2803V6.70123C24.1821 6.44571 23.9845 6.22897 23.7291 6.2171C23.6746 6.21456 23.6201 6.22168 23.5681 6.23812V6.26127L21.4841 6.91426C21.7023 6.33016 21.8319 5.71665 21.8685 5.09423C21.8685 2.28077 19.5878 0 16.7743 0C13.9608 0 11.6801 2.28077 11.6801 5.09423C11.7126 5.68754 11.8327 6.27279 12.0367 6.8309L8.5911 5.59902C8.5511 5.5941 8.51069 5.5941 8.47069 5.59902H8.43364C8.37813 5.60001 8.32319 5.61101 8.27155 5.63144L1.12574 8.41011C0.960927 8.47281 0.846018 8.62361 0.829346 8.79913V16.246V24.3967C0.830098 24.6525 1.03804 24.8592 1.29385 24.8585C1.3504 24.8583 1.40644 24.8478 1.45918 24.8274L8.44291 22.1229L16.4084 24.9756C16.5046 25.0081 16.6087 25.0081 16.7048 24.9756L23.846 22.7434C24.0467 22.6806 24.1798 22.4904 24.1702 22.2803ZM16.7743 0.926224C19.0762 0.926224 20.9423 2.79228 20.9423 5.09423C20.9423 6.905 18.2238 11.9066 16.7743 14.3565C15.3247 11.8881 12.6063 6.88184 12.6063 5.09423C12.6063 2.79228 14.4723 0.926224 16.7743 0.926224ZM23.2579 21.9608L17.0244 23.9105V20.3769C17.0244 20.1212 16.817 19.9138 16.5613 19.9138C16.3055 19.9138 16.0981 20.1212 16.0981 20.3769V23.8781L8.90139 21.3032V18.3392C8.90139 18.0835 8.69403 17.8761 8.43828 17.8761C8.18252 17.8761 7.97516 18.0835 7.97516 18.3392V21.3032L1.75557 23.7252V16.5655L4.04334 15.6393C4.28816 15.5652 4.42651 15.3067 4.35241 15.0618C4.27831 14.817 4.01978 14.6787 3.77497 14.7528C3.74938 14.7605 3.72449 14.7705 3.70058 14.7825L1.75551 15.5652V9.11868L7.97511 6.71049V8.09983C7.97511 8.35558 8.18246 8.56294 8.43822 8.56294C8.69397 8.56294 8.90133 8.35558 8.90133 8.09983V6.69197L12.4534 7.96553C13.5925 10.5687 14.9029 13.0936 16.376 15.5235C16.5086 15.7422 16.7934 15.8119 17.0121 15.6793C17.0758 15.6407 17.1292 15.5872 17.1679 15.5235C18.6337 13.1079 19.9394 10.5985 21.0765 8.01184L23.2439 7.33106L23.2578 14.9215L20.9098 15.4911C20.6541 15.5218 20.4716 15.754 20.5023 16.0098C20.533 16.2655 20.7652 16.448 21.021 16.4173C21.0579 16.4218 21.0952 16.4218 21.1321 16.4173L23.2578 15.8986V21.9608H23.2579Z" fill="#2D383F"/>
<path d="M16.7556 2.40353C15.2696 2.40353 14.0649 3.6082 14.0649 5.09421C14.0649 6.58022 15.2696 7.78489 16.7556 7.78489C18.2406 7.78235 19.4438 6.57918 19.4463 5.09421C19.4463 3.6082 18.2416 2.40353 16.7556 2.40353ZM16.7556 6.85867C15.7895 6.84605 15.0121 6.0605 15.0097 5.09421H14.9912C14.9912 4.11971 15.7811 3.32976 16.7556 3.32976C17.7301 3.32976 18.5201 4.11971 18.5201 5.09421C18.5201 6.06872 17.7301 6.85867 16.7556 6.85867Z" fill="#2D383F"/>
<path d="M10.6983 13.9674V13.9813L8.45685 13.0134C8.34276 12.9659 8.21436 12.9659 8.10026 13.0134L6.20613 13.7776C5.96827 13.8735 5.85318 14.1441 5.94911 14.3819C6.04503 14.6198 6.3156 14.7349 6.55347 14.639L8.26698 13.9489L10.3278 14.8196C10.3864 14.8445 10.4495 14.8571 10.5131 14.8566C10.7688 14.8587 10.9779 14.6531 10.9799 14.3973C10.9815 14.2103 10.8704 14.0407 10.6983 13.9674Z" fill="#2D383F"/>
<path d="M18.27 16.616C18.201 16.3929 17.9766 16.2561 17.7467 16.2969L17.7513 16.2598L16.6028 16.5377L14.6578 15.6948C14.4224 15.5925 14.1487 15.7003 14.0465 15.9356C13.9442 16.171 14.052 16.4447 14.2873 16.5469L16.3713 17.4732C16.4298 17.4981 16.4929 17.5107 16.5565 17.5102H16.6677L17.9644 17.1953C18.2087 17.1197 18.3455 16.8604 18.27 16.616Z" fill="#2D383F"/>
</svg>
