<?xml version="1.0" standalone="no"?>
<!DOCTYPE svg PUBLIC "-//W3C//DTD SVG 20010904//EN"
 "http://www.w3.org/TR/2001/REC-SVG-20010904/DTD/svg10.dtd">
<svg version="1.0" xmlns="http://www.w3.org/2000/svg"
 width="700.000000pt" height="700.000000pt" viewBox="0 0 700.000000 700.000000"
 preserveAspectRatio="xMidYMid meet">
<metadata>
Created by potrace 1.11, written by Peter Selinger 2001-2013
</metadata>
<g transform="translate(0.000000,700.000000) scale(0.100000,-0.100000)"
fill="#000000" stroke="none">
<path d="M3298 6566 c-1 -2 -38 -6 -80 -10 -137 -11 -258 -30 -398 -62 -36 -8
-76 -17 -90 -20 -30 -6 -47 -11 -205 -63 -799 -261 -1492 -891 -1834 -1668
-43 -98 -127 -325 -135 -364 -3 -13 -11 -46 -19 -74 -36 -122 -79 -359 -94
-520 -15 -159 -6 -646 12 -675 2 -3 6 -33 10 -66 3 -32 7 -66 10 -74 2 -8 6
-26 9 -40 45 -260 145 -557 274 -810 213 -422 514 -781 902 -1076 79 -61 264
-184 275 -184 5 0 16 -6 24 -14 9 -8 79 -46 156 -84 236 -118 435 -191 670
-247 130 -31 145 -34 290 -55 215 -32 652 -34 813 -5 9 2 42 6 72 10 30 4 97
16 149 27 51 11 103 21 115 24 11 2 76 20 143 39 878 257 1618 921 1966 1765
62 149 157 453 157 500 0 18 -5 23 -241 270 -91 96 -190 200 -218 230 -29 30
-106 111 -170 180 -65 69 -133 141 -151 160 -18 19 -67 71 -109 116 -66 70
-279 296 -394 418 -211 223 -286 304 -312 331 -16 17 -59 63 -95 101 -36 38
-132 141 -215 229 -193 204 -215 227 -287 305 l-60 64 -265 -269 c-146 -149
-326 -331 -400 -406 l-135 -136 185 -189 c102 -104 220 -226 263 -271 l79 -81
136 135 137 135 740 -738 741 -739 -47 -105 c-74 -164 -128 -263 -211 -385
-155 -228 -345 -425 -581 -601 -121 -90 -459 -274 -503 -274 -7 0 -17 -4 -23
-9 -22 -21 -321 -107 -434 -125 -78 -13 -178 -27 -225 -31 -64 -6 -362 -7
-395 -1 -14 2 -52 7 -85 11 -33 3 -82 10 -110 15 -27 5 -64 11 -82 14 -17 2
-35 6 -40 9 -4 3 -24 8 -43 11 -51 8 -241 65 -285 86 -11 5 -45 19 -75 30 -88
34 -297 146 -400 215 -318 213 -562 477 -758 818 -83 145 -201 437 -226 559
-3 13 -12 57 -21 98 -38 172 -50 288 -50 490 0 291 30 484 119 754 113 344
308 658 571 922 235 236 463 392 757 517 110 48 309 114 368 123 19 3 38 8 41
10 3 2 21 6 40 9 19 3 59 10 89 15 139 23 224 30 400 29 151 -1 198 -3 265
-13 22 -3 56 -8 75 -10 45 -6 101 -16 120 -21 8 -2 29 -7 45 -9 17 -3 62 -15
100 -26 39 -11 81 -23 95 -26 89 -19 380 -151 515 -234 227 -138 460 -341 610
-531 33 -41 62 -76 65 -79 10 -8 136 -202 165 -255 113 -203 199 -425 248
-646 l22 -96 140 -148 c77 -81 163 -172 190 -200 56 -59 293 -309 349 -369 20
-21 36 -37 36 -35 0 2 4 38 8 79 17 183 7 524 -23 708 -3 17 -8 49 -11 70 -3
20 -12 69 -21 107 -8 39 -16 78 -18 87 -9 44 -50 182 -77 263 -214 637 -650
1200 -1223 1582 -49 33 -97 63 -105 67 -8 4 -37 20 -65 36 -72 43 -266 137
-365 177 -122 50 -343 121 -430 138 -8 2 -60 12 -115 23 -102 21 -131 26 -220
37 -27 3 -66 8 -85 11 -39 6 -496 14 -502 10z"/>
<path d="M2804 3812 c-232 -229 -604 -598 -828 -818 -223 -221 -406 -403 -406
-406 0 -2 252 -4 561 -4 l561 1 91 96 c51 52 166 173 257 269 91 95 171 179
178 187 12 11 20 8 55 -23 50 -44 184 -168 438 -404 56 -52 111 -102 123 -110
18 -13 96 -15 545 -16 l524 0 -265 260 c-334 328 -999 979 -1132 1109 -56 54
-141 138 -191 187 l-90 89 -421 -417z"/>
</g>
</svg>
