<svg width="12" height="12" fill="none" xmlns="http://www.w3.org/2000/svg"><g clip-path="url(#clip0)"><path d="M11.893 8.684c-.032-.054-.232-.488-1.192-1.379-1.005-.933-.87-.782.34-2.395.738-.983 1.033-1.583.94-1.84-.087-.244-.63-.18-.63-.18l-1.803.011s-.133-.018-.233.042c-.097.058-.159.193-.159.193s-.286.76-.667 1.407C7.686 5.908 7.364 5.98 7.233 5.895c-.305-.197-.229-.794-.229-1.217 0-1.322.2-1.873-.39-2.016-.197-.047-.341-.079-.843-.084-.643-.007-1.189.002-1.497.153-.206.1-.364.325-.267.338.12.015.39.072.533.267.185.252.178.817.178.817s.107 1.557-.248 1.75c-.244.133-.578-.138-1.294-1.376a11.544 11.544 0 01-.644-1.335s-.054-.13-.149-.2a.741.741 0 00-.277-.112L.39 2.89s-.257.008-.352.12c-.084.1-.007.305-.007.305s1.343 3.14 2.863 4.724c1.394 1.45 2.977 1.356 2.977 1.356h.717s.216-.024.327-.144c.102-.11.098-.315.098-.315S7 7.974 7.447 7.832c.44-.14 1.006.93 1.605 1.342.453.311.797.243.797.243l1.603-.022s.839-.052.441-.711z" fill="#fff"/></g><defs><clipPath id="clip0"><path fill="#fff" d="M0 0h12v12H0z"/></clipPath></defs></svg>