<svg width="207" height="62" viewBox="0 0 207 62" fill="none" xmlns="http://www.w3.org/2000/svg">
<g clip-path="url(#clip0)">
<path d="M22.7825 40.1768L28.2395 34.447L34.4468 40.1768H45.0878L28.1713 23.6013L11.3911 40.1768H22.7825Z" fill="white"/>
<path d="M38.4033 13.5742L30.3543 21.7596L35.6749 27.2166L38.4033 24.4881L53.3418 39.3583C49.9312 48.4305 41.2 54.9106 30.9 54.9106C17.6669 54.9106 6.95762 44.2014 6.95762 30.9682C7.02583 17.7351 17.7351 7.02583 30.9682 7.02583C42.7007 7.02583 52.5232 15.5523 54.5014 26.6709L61.7318 34.3106C61.8683 33.2192 61.9365 32.0596 61.9365 30.9682C61.9365 22.7146 58.7305 14.9384 52.8643 9.07219C46.998 3.20596 39.2219 0 30.9682 0C22.6464 0 14.9384 3.20596 9.07219 9.07219C3.20596 14.9384 0 22.6464 0 30.9682C0 39.2901 3.20596 46.998 9.07219 52.8643C14.9384 58.7305 22.7146 61.9365 30.9682 61.9365C39.2219 61.9365 46.998 58.7305 52.8643 52.8643C56.4795 49.249 59.0716 44.9517 60.504 40.2451C60.7769 39.4265 60.9815 38.5398 61.1861 37.7212L54.9106 31.1047L38.4033 13.5742Z" fill="white"/>
</g>
<path d="M87.4886 19.9H92.0426L89.5586 32.389H97.2406L96.5046 36H84.2686L87.4886 19.9ZM101.527 19.9H106.081L102.861 36H98.3067L101.527 19.9ZM113.162 23.419L112.449 26.961H119.556L118.843 30.48H111.759L110.655 36H106.101L109.321 19.9H121.925L121.212 23.419H113.162ZM127.85 23.419L127.321 26.133H134.474L133.807 29.537H126.631L126.056 32.481H134.497L133.761 36H120.858L124.078 19.9H136.682L135.969 23.419H127.85ZM142.222 23.511H137.277L138.013 19.9H152.434L151.698 23.511H146.776L144.269 36H139.715L142.222 23.511ZM159.38 36.322C157.754 36.322 156.336 36.023 155.125 35.425C153.929 34.827 153.001 33.9913 152.342 32.918C151.698 31.8447 151.376 30.618 151.376 29.238C151.376 27.398 151.797 25.742 152.641 24.27C153.499 22.798 154.688 21.648 156.206 20.82C157.739 19.992 159.479 19.578 161.427 19.578C163.052 19.578 164.463 19.877 165.659 20.475C166.87 21.073 167.798 21.9087 168.442 22.982C169.101 24.0553 169.431 25.282 169.431 26.662C169.431 28.502 169.001 30.158 168.143 31.63C167.299 33.102 166.111 34.252 164.578 35.08C163.06 35.908 161.327 36.322 159.38 36.322ZM159.771 32.55C160.783 32.55 161.672 32.297 162.439 31.791C163.205 31.285 163.796 30.6103 164.21 29.767C164.624 28.9083 164.831 27.9653 164.831 26.938C164.831 25.8493 164.493 24.983 163.819 24.339C163.159 23.6797 162.232 23.35 161.036 23.35C160.024 23.35 159.134 23.603 158.368 24.109C157.601 24.615 157.011 25.2973 156.597 26.156C156.183 26.9993 155.976 27.9347 155.976 28.962C155.976 30.0507 156.305 30.9247 156.965 31.584C157.639 32.228 158.575 32.55 159.771 32.55ZM177.98 36.322C176.584 36.322 175.381 36.092 174.369 35.632C173.357 35.1567 172.582 34.482 172.046 33.608C171.509 32.734 171.241 31.7067 171.241 30.526C171.241 30.0353 171.302 29.468 171.425 28.824L173.219 19.9H177.773L176.002 28.755C175.91 29.215 175.864 29.6367 175.864 30.02C175.864 31.7067 176.753 32.55 178.532 32.55C179.498 32.55 180.257 32.2587 180.809 31.676C181.376 31.078 181.798 30.1043 182.074 28.755L183.845 19.9H188.33L186.513 29.031C185.531 33.8917 182.687 36.322 177.98 36.322ZM204.801 25.029C204.801 26.501 204.41 27.7737 203.628 28.847C202.846 29.905 201.75 30.6793 200.339 31.17L203.076 36H198.315L195.923 31.722H193.623L192.772 36H188.218L191.438 19.9H198.315C200.37 19.9 201.964 20.3523 203.099 21.257C204.234 22.1617 204.801 23.419 204.801 25.029ZM200.201 25.466C200.201 24.8067 199.979 24.316 199.534 23.994C199.089 23.6567 198.468 23.488 197.671 23.488H195.279L194.313 28.203H197.027C198.039 28.203 198.821 27.9653 199.373 27.49C199.925 27.0147 200.201 26.34 200.201 25.466Z" fill="white"/>
<path d="M87.3006 51.1806C86.746 51.1806 86.242 51.0579 85.7886 50.8126C85.3406 50.5619 84.9886 50.2206 84.7326 49.7886C84.482 49.3566 84.3566 48.8712 84.3566 48.3326C84.3566 47.7939 84.482 47.3086 84.7326 46.8766C84.9886 46.4446 85.3406 46.1059 85.7886 45.8606C86.242 45.6099 86.746 45.4846 87.3006 45.4846C87.8553 45.4846 88.354 45.6072 88.7966 45.8526C89.2446 46.0979 89.5966 46.4392 89.8526 46.8766C90.1086 47.3086 90.2366 47.7939 90.2366 48.3326C90.2366 48.8712 90.1086 49.3592 89.8526 49.7966C89.5966 50.2286 89.2446 50.5672 88.7966 50.8126C88.354 51.0579 87.8553 51.1806 87.3006 51.1806ZM87.3006 50.6526C87.7433 50.6526 88.1433 50.5539 88.5006 50.3566C88.858 50.1539 89.138 49.8766 89.3406 49.5246C89.5433 49.1672 89.6446 48.7699 89.6446 48.3326C89.6446 47.8952 89.5433 47.5006 89.3406 47.1486C89.138 46.7912 88.858 46.5139 88.5006 46.3166C88.1433 46.1139 87.7433 46.0126 87.3006 46.0126C86.858 46.0126 86.4553 46.1139 86.0926 46.3166C85.7353 46.5139 85.4526 46.7912 85.2446 47.1486C85.042 47.5006 84.9406 47.8952 84.9406 48.3326C84.9406 48.7699 85.042 49.1672 85.2446 49.5246C85.4526 49.8766 85.7353 50.1539 86.0926 50.3566C86.4553 50.5539 86.858 50.6526 87.3006 50.6526ZM93.6813 46.8926C94.076 46.8926 94.4333 46.9832 94.7533 47.1646C95.0733 47.3406 95.324 47.5912 95.5053 47.9166C95.6867 48.2419 95.7773 48.6126 95.7773 49.0286C95.7773 49.4499 95.6867 49.8232 95.5053 50.1486C95.324 50.4739 95.0733 50.7272 94.7533 50.9086C94.4387 51.0846 94.0813 51.1726 93.6813 51.1726C93.34 51.1726 93.0307 51.1032 92.7533 50.9646C92.4813 50.8206 92.2573 50.6126 92.0813 50.3406V52.6846H91.5133V46.9246H92.0573V47.7566C92.228 47.4792 92.452 47.2659 92.7293 47.1166C93.012 46.9672 93.3293 46.8926 93.6813 46.8926ZM93.6413 50.6686C93.9347 50.6686 94.2013 50.6019 94.4413 50.4686C94.6813 50.3299 94.868 50.1352 95.0013 49.8846C95.14 49.6339 95.2093 49.3486 95.2093 49.0286C95.2093 48.7086 95.14 48.4259 95.0013 48.1806C94.868 47.9299 94.6813 47.7352 94.4413 47.5966C94.2013 47.4579 93.9347 47.3886 93.6413 47.3886C93.3427 47.3886 93.0733 47.4579 92.8333 47.5966C92.5987 47.7352 92.412 47.9299 92.2733 48.1806C92.14 48.4259 92.0733 48.7086 92.0733 49.0286C92.0733 49.3486 92.14 49.6339 92.2733 49.8846C92.412 50.1352 92.5987 50.3299 92.8333 50.4686C93.0733 50.6019 93.3427 50.6686 93.6413 50.6686ZM99.9737 47.4286H97.5657V51.1326H96.9977V46.9246H99.9737V47.4286ZM102.243 46.8926C102.792 46.8926 103.213 47.0312 103.507 47.3086C103.8 47.5806 103.947 47.9859 103.947 48.5246V51.1326H103.403V50.4766C103.275 50.6952 103.085 50.8659 102.835 50.9886C102.589 51.1112 102.296 51.1726 101.955 51.1726C101.485 51.1726 101.112 51.0606 100.835 50.8366C100.557 50.6126 100.419 50.3166 100.419 49.9486C100.419 49.5912 100.547 49.3032 100.803 49.0846C101.064 48.8659 101.477 48.7566 102.043 48.7566H103.379V48.5006C103.379 48.1379 103.277 47.8632 103.075 47.6766C102.872 47.4846 102.576 47.3886 102.187 47.3886C101.92 47.3886 101.664 47.4339 101.419 47.5246C101.173 47.6099 100.963 47.7299 100.787 47.8846L100.531 47.4606C100.744 47.2792 101 47.1406 101.299 47.0446C101.597 46.9432 101.912 46.8926 102.243 46.8926ZM102.043 50.7246C102.363 50.7246 102.637 50.6526 102.867 50.5086C103.096 50.3592 103.267 50.1459 103.379 49.8686V49.1806H102.059C101.339 49.1806 100.979 49.4312 100.979 49.9326C100.979 50.1779 101.072 50.3726 101.259 50.5166C101.445 50.6552 101.707 50.7246 102.043 50.7246ZM105.459 46.9246H106.027V48.7886H108.675V46.9246H109.243V51.1326H108.675V49.2766H106.027V51.1326H105.459V46.9246ZM110.857 46.9246H111.425V50.2686L114.233 46.9246H114.737V51.1326H114.169V47.7886L111.369 51.1326H110.857V46.9246ZM118.327 48.9406C118.626 49.0099 118.855 49.1299 119.015 49.3006C119.18 49.4712 119.263 49.6792 119.263 49.9246C119.263 50.1699 119.178 50.3886 119.007 50.5806C118.842 50.7726 118.615 50.9219 118.327 51.0286C118.039 51.1299 117.722 51.1806 117.375 51.1806C117.071 51.1806 116.772 51.1379 116.479 51.0526C116.186 50.9619 115.93 50.8312 115.711 50.6606L115.903 50.2366C116.095 50.3806 116.319 50.4926 116.575 50.5726C116.831 50.6526 117.09 50.6926 117.351 50.6926C117.74 50.6926 118.058 50.6206 118.303 50.4766C118.554 50.3272 118.679 50.1272 118.679 49.8766C118.679 49.6526 118.578 49.4792 118.375 49.3566C118.172 49.2286 117.895 49.1646 117.543 49.1646H116.823V48.7486H117.511C117.826 48.7486 118.079 48.6899 118.271 48.5726C118.463 48.4499 118.559 48.2872 118.559 48.0846C118.559 47.8606 118.45 47.6846 118.231 47.5566C118.018 47.4286 117.738 47.3646 117.391 47.3646C116.938 47.3646 116.49 47.4792 116.047 47.7086L115.887 47.2686C116.388 47.0072 116.908 46.8766 117.447 46.8766C117.767 46.8766 118.055 46.9246 118.311 47.0206C118.572 47.1112 118.775 47.2419 118.919 47.4126C119.068 47.5832 119.143 47.7806 119.143 48.0046C119.143 48.2179 119.068 48.4072 118.919 48.5726C118.775 48.7379 118.578 48.8606 118.327 48.9406ZM122 46.8926C122.55 46.8926 122.971 47.0312 123.264 47.3086C123.558 47.5806 123.704 47.9859 123.704 48.5246V51.1326H123.16V50.4766C123.032 50.6952 122.843 50.8659 122.592 50.9886C122.347 51.1112 122.054 51.1726 121.712 51.1726C121.243 51.1726 120.87 51.0606 120.592 50.8366C120.315 50.6126 120.176 50.3166 120.176 49.9486C120.176 49.5912 120.304 49.3032 120.56 49.0846C120.822 48.8659 121.235 48.7566 121.8 48.7566H123.136V48.5006C123.136 48.1379 123.035 47.8632 122.832 47.6766C122.63 47.4846 122.334 47.3886 121.944 47.3886C121.678 47.3886 121.422 47.4339 121.176 47.5246C120.931 47.6099 120.72 47.7299 120.544 47.8846L120.288 47.4606C120.502 47.2792 120.758 47.1406 121.056 47.0446C121.355 46.9432 121.67 46.8926 122 46.8926ZM121.8 50.7246C122.12 50.7246 122.395 50.6526 122.624 50.5086C122.854 50.3592 123.024 50.1459 123.136 49.8686V49.1806H121.816C121.096 49.1806 120.736 49.4312 120.736 49.9326C120.736 50.1779 120.83 50.3726 121.016 50.5166C121.203 50.6552 121.464 50.7246 121.8 50.7246ZM129.6 50.6366V52.1886H129.064V51.1326H125.216V46.9246H125.784V50.6366H128.352V46.9246H128.92V50.6366H129.6ZM130.685 46.9246H131.253V50.2686L134.061 46.9246H134.565V51.1326H133.997V47.7886L131.197 51.1326H130.685V46.9246ZM139.425 46.9246V51.1326H138.905V49.7406H137.585H137.425L136.449 51.1326H135.833L136.881 49.6606C136.556 49.5699 136.305 49.4152 136.129 49.1966C135.953 48.9779 135.865 48.7006 135.865 48.3646C135.865 47.8952 136.025 47.5379 136.345 47.2926C136.665 47.0472 137.102 46.9246 137.657 46.9246H139.425ZM136.441 48.3806C136.441 49.0046 136.838 49.3166 137.633 49.3166H138.905V47.4286H137.673C136.852 47.4286 136.441 47.7459 136.441 48.3806ZM146.914 46.9246V51.1326H146.346V47.4286H143.706V51.1326H143.138V46.9246H146.914ZM150.265 51.1726C149.86 51.1726 149.494 51.0819 149.169 50.9006C148.844 50.7139 148.588 50.4579 148.401 50.1326C148.214 49.8072 148.121 49.4392 148.121 49.0286C148.121 48.6179 148.214 48.2499 148.401 47.9246C148.588 47.5992 148.844 47.3459 149.169 47.1646C149.494 46.9832 149.86 46.8926 150.265 46.8926C150.67 46.8926 151.036 46.9832 151.361 47.1646C151.686 47.3459 151.94 47.5992 152.121 47.9246C152.308 48.2499 152.401 48.6179 152.401 49.0286C152.401 49.4392 152.308 49.8072 152.121 50.1326C151.94 50.4579 151.686 50.7139 151.361 50.9006C151.036 51.0819 150.67 51.1726 150.265 51.1726ZM150.265 50.6686C150.564 50.6686 150.83 50.6019 151.065 50.4686C151.305 50.3299 151.492 50.1352 151.625 49.8846C151.758 49.6339 151.825 49.3486 151.825 49.0286C151.825 48.7086 151.758 48.4232 151.625 48.1726C151.492 47.9219 151.305 47.7299 151.065 47.5966C150.83 47.4579 150.564 47.3886 150.265 47.3886C149.966 47.3886 149.697 47.4579 149.457 47.5966C149.222 47.7299 149.036 47.9219 148.897 48.1726C148.764 48.4232 148.697 48.7086 148.697 49.0286C148.697 49.3486 148.764 49.6339 148.897 49.8846C149.036 50.1352 149.222 50.3299 149.457 50.4686C149.697 50.6019 149.966 50.6686 150.265 50.6686ZM156.098 51.1326L154.762 49.3726L153.418 51.1326H152.778L154.442 48.9726L152.858 46.9246H153.498L154.762 48.5726L156.026 46.9246H156.65L155.066 48.9726L156.746 51.1326H156.098ZM159.265 51.1726C158.86 51.1726 158.494 51.0819 158.169 50.9006C157.844 50.7139 157.588 50.4579 157.401 50.1326C157.214 49.8072 157.121 49.4392 157.121 49.0286C157.121 48.6179 157.214 48.2499 157.401 47.9246C157.588 47.5992 157.844 47.3459 158.169 47.1646C158.494 46.9832 158.86 46.8926 159.265 46.8926C159.67 46.8926 160.036 46.9832 160.361 47.1646C160.686 47.3459 160.94 47.5992 161.121 47.9246C161.308 48.2499 161.401 48.6179 161.401 49.0286C161.401 49.4392 161.308 49.8072 161.121 50.1326C160.94 50.4579 160.686 50.7139 160.361 50.9006C160.036 51.0819 159.67 51.1726 159.265 51.1726ZM159.265 50.6686C159.564 50.6686 159.83 50.6019 160.065 50.4686C160.305 50.3299 160.492 50.1352 160.625 49.8846C160.758 49.6339 160.825 49.3486 160.825 49.0286C160.825 48.7086 160.758 48.4232 160.625 48.1726C160.492 47.9219 160.305 47.7299 160.065 47.5966C159.83 47.4579 159.564 47.3886 159.265 47.3886C158.966 47.3886 158.697 47.4579 158.457 47.5966C158.222 47.7299 158.036 47.9219 157.897 48.1726C157.764 48.4232 157.697 48.7086 157.697 49.0286C157.697 49.3486 157.764 49.6339 157.897 49.8846C158.036 50.1352 158.222 50.3299 158.457 50.4686C158.697 50.6019 158.966 50.6686 159.265 50.6686ZM166.695 50.6366V52.1486H166.159V51.1326H162.391V52.1486H161.855V50.6366H162.095C162.378 50.6206 162.57 50.4126 162.671 50.0126C162.773 49.6126 162.842 49.0526 162.879 48.3326L162.935 46.9246H166.039V50.6366H166.695ZM163.399 48.3646C163.373 48.9619 163.322 49.4552 163.247 49.8446C163.173 50.2286 163.039 50.4926 162.847 50.6366H165.471V47.4286H163.447L163.399 48.3646ZM169.538 51.1726C169.133 51.1726 168.768 51.0819 168.442 50.9006C168.117 50.7139 167.861 50.4579 167.674 50.1326C167.488 49.8072 167.394 49.4392 167.394 49.0286C167.394 48.6179 167.488 48.2499 167.674 47.9246C167.861 47.5992 168.117 47.3459 168.442 47.1646C168.768 46.9832 169.133 46.8926 169.538 46.8926C169.944 46.8926 170.309 46.9832 170.634 47.1646C170.96 47.3459 171.213 47.5992 171.394 47.9246C171.581 48.2499 171.674 48.6179 171.674 49.0286C171.674 49.4392 171.581 49.8072 171.394 50.1326C171.213 50.4579 170.96 50.7139 170.634 50.9006C170.309 51.0819 169.944 51.1726 169.538 51.1726ZM169.538 50.6686C169.837 50.6686 170.104 50.6019 170.338 50.4686C170.578 50.3299 170.765 50.1352 170.898 49.8846C171.032 49.6339 171.098 49.3486 171.098 49.0286C171.098 48.7086 171.032 48.4232 170.898 48.1726C170.765 47.9219 170.578 47.7299 170.338 47.5966C170.104 47.4579 169.837 47.3886 169.538 47.3886C169.24 47.3886 168.97 47.4579 168.73 47.5966C168.496 47.7299 168.309 47.9219 168.17 48.1726C168.037 48.4232 167.97 48.7086 167.97 49.0286C167.97 49.3486 168.037 49.6339 168.17 49.8846C168.309 50.1352 168.496 50.3299 168.73 50.4686C168.97 50.6019 169.24 50.6686 169.538 50.6686ZM175.568 48.9566C176.139 49.0899 176.424 49.4339 176.424 49.9886C176.424 50.3566 176.288 50.6392 176.016 50.8366C175.744 51.0339 175.339 51.1326 174.8 51.1326H172.888V46.9246H174.744C175.224 46.9246 175.6 47.0179 175.872 47.2046C176.144 47.3912 176.28 47.6579 176.28 48.0046C176.28 48.2339 176.216 48.4312 176.088 48.5966C175.966 48.7566 175.792 48.8766 175.568 48.9566ZM173.44 48.7966H174.704C175.03 48.7966 175.278 48.7352 175.448 48.6126C175.624 48.4899 175.712 48.3112 175.712 48.0766C175.712 47.8419 175.624 47.6659 175.448 47.5486C175.278 47.4312 175.03 47.3726 174.704 47.3726H173.44V48.7966ZM174.776 50.6846C175.139 50.6846 175.411 50.6259 175.592 50.5086C175.774 50.3912 175.864 50.2072 175.864 49.9566C175.864 49.7059 175.782 49.5219 175.616 49.4046C175.451 49.2819 175.19 49.2206 174.832 49.2206H173.44V50.6846H174.776ZM182.529 48.9566C183.1 49.0899 183.385 49.4339 183.385 49.9886C183.385 50.3566 183.249 50.6392 182.977 50.8366C182.705 51.0339 182.3 51.1326 181.761 51.1326H179.849V46.9246H181.705C182.185 46.9246 182.561 47.0179 182.833 47.2046C183.105 47.3912 183.241 47.6579 183.241 48.0046C183.241 48.2339 183.177 48.4312 183.049 48.5966C182.927 48.7566 182.753 48.8766 182.529 48.9566ZM180.401 48.7966H181.665C181.991 48.7966 182.239 48.7352 182.409 48.6126C182.585 48.4899 182.673 48.3112 182.673 48.0766C182.673 47.8419 182.585 47.6659 182.409 47.5486C182.239 47.4312 181.991 47.3726 181.665 47.3726H180.401V48.7966ZM181.737 50.6846C182.1 50.6846 182.372 50.6259 182.553 50.5086C182.735 50.3912 182.825 50.2072 182.825 49.9566C182.825 49.7059 182.743 49.5219 182.577 49.4046C182.412 49.2819 182.151 49.2206 181.793 49.2206H180.401V50.6846H181.737ZM189.786 47.4286H187.378V51.1326H186.81V46.9246H189.786V47.4286ZM192.148 51.1726C191.742 51.1726 191.377 51.0819 191.052 50.9006C190.726 50.7139 190.47 50.4579 190.284 50.1326C190.097 49.8072 190.004 49.4392 190.004 49.0286C190.004 48.6179 190.097 48.2499 190.284 47.9246C190.47 47.5992 190.726 47.3459 191.052 47.1646C191.377 46.9832 191.742 46.8926 192.148 46.8926C192.553 46.8926 192.918 46.9832 193.244 47.1646C193.569 47.3459 193.822 47.5992 194.004 47.9246C194.19 48.2499 194.284 48.6179 194.284 49.0286C194.284 49.4392 194.19 49.8072 194.004 50.1326C193.822 50.4579 193.569 50.7139 193.244 50.9006C192.918 51.0819 192.553 51.1726 192.148 51.1726ZM192.148 50.6686C192.446 50.6686 192.713 50.6019 192.948 50.4686C193.188 50.3299 193.374 50.1352 193.508 49.8846C193.641 49.6339 193.708 49.3486 193.708 49.0286C193.708 48.7086 193.641 48.4232 193.508 48.1726C193.374 47.9219 193.188 47.7299 192.948 47.5966C192.713 47.4579 192.446 47.3886 192.148 47.3886C191.849 47.3886 191.58 47.4579 191.34 47.5966C191.105 47.7299 190.918 47.9219 190.78 48.1726C190.646 48.4232 190.58 48.7086 190.58 49.0286C190.58 49.3486 190.646 49.6339 190.78 49.8846C190.918 50.1352 191.105 50.3299 191.34 50.4686C191.58 50.6019 191.849 50.6686 192.148 50.6686ZM197.666 46.8926C198.06 46.8926 198.418 46.9832 198.738 47.1646C199.058 47.3406 199.308 47.5912 199.49 47.9166C199.671 48.2419 199.762 48.6126 199.762 49.0286C199.762 49.4499 199.671 49.8232 199.49 50.1486C199.308 50.4739 199.058 50.7272 198.738 50.9086C198.423 51.0846 198.066 51.1726 197.666 51.1726C197.324 51.1726 197.015 51.1032 196.738 50.9646C196.466 50.8206 196.242 50.6126 196.066 50.3406V52.6846H195.498V46.9246H196.042V47.7566C196.212 47.4792 196.436 47.2659 196.714 47.1166C196.996 46.9672 197.314 46.8926 197.666 46.8926ZM197.626 50.6686C197.919 50.6686 198.186 50.6019 198.426 50.4686C198.666 50.3299 198.852 50.1352 198.986 49.8846C199.124 49.6339 199.194 49.3486 199.194 49.0286C199.194 48.7086 199.124 48.4259 198.986 48.1806C198.852 47.9299 198.666 47.7352 198.426 47.5966C198.186 47.4579 197.919 47.3886 197.626 47.3886C197.327 47.3886 197.058 47.4579 196.818 47.5966C196.583 47.7352 196.396 47.9299 196.258 48.1806C196.124 48.4259 196.058 48.7086 196.058 49.0286C196.058 49.3486 196.124 49.6339 196.258 49.8846C196.396 50.1352 196.583 50.3299 196.818 50.4686C197.058 50.6019 197.327 50.6686 197.626 50.6686ZM202.75 48.4126C203.278 48.4179 203.681 48.5352 203.958 48.7646C204.235 48.9939 204.374 49.3246 204.374 49.7566C204.374 50.2046 204.225 50.5486 203.926 50.7886C203.627 51.0286 203.201 51.1459 202.646 51.1406L200.982 51.1326V46.9246H201.55V48.3966L202.75 48.4126ZM205.078 46.9246H205.646V51.1326H205.078V46.9246ZM202.614 50.7086C203.003 50.7139 203.297 50.6366 203.494 50.4766C203.697 50.3112 203.798 50.0712 203.798 49.7566C203.798 49.4472 203.699 49.2179 203.502 49.0686C203.305 48.9192 203.009 48.8419 202.614 48.8366L201.55 48.8206V50.6926L202.614 50.7086Z" fill="white"/>
<defs>
<clipPath id="clip0">
<rect width="61.8683" height="61.8683" fill="white"/>
</clipPath>
</defs>
</svg>
